<svg width="695" height="633" viewBox="0 0 695 633" fill="none" xmlns="http://www.w3.org/2000/svg">
<g opacity="0.5" clip-path="url(#clip0_1306_524)">
<path d="M390 780C605.391 780 780 605.391 780 390C780 174.609 605.391 0 390 0C174.609 0 0 174.609 0 390C0 605.391 174.609 780 390 780Z" fill="#FC8001"/>
<path d="M390.723 21.7C210.779 21.7 64.8342 167.645 64.8342 347.589C64.8342 365.132 66.2809 382.403 68.9033 399.132C111.041 289.086 226.151 209.964 361.606 209.964C474.728 209.964 573.651 265.122 627.725 347.408C628.087 347.408 628.358 347.408 628.721 347.408C663.714 347.408 693.192 358.531 715.075 377.52C715.98 367.663 716.522 357.626 716.522 347.498C716.522 167.554 570.668 21.7 390.723 21.7Z" fill="#FDCC01"/>
<path d="M715.166 377.522C693.192 358.441 663.805 347.41 628.811 347.41C628.448 347.41 628.177 347.41 627.816 347.41C531.966 347.952 431.053 431.233 402.207 533.955C386.835 588.662 394.973 637.853 420.383 672.032C410.617 672.937 400.76 673.479 390.723 673.479C228.322 673.479 93.6794 554.662 68.9935 399.132C57.8713 428.16 51.8129 459.264 51.8129 491.728C51.8129 571.481 88.2539 643.369 146.849 694.639C183.019 723.485 224.342 746.091 269.283 760.74C307.351 773.128 347.952 779.908 390.09 779.908C507.01 779.908 611.811 728.368 683.245 646.895C707.84 618.774 728.549 587.215 744.374 552.854C746.723 546.614 748.804 540.376 750.522 533.955C768.877 468.487 753.505 410.797 715.166 377.522Z" fill="#FD0024"/>
</g>
<defs>
<clipPath id="clip0_1306_524">
<rect width="780" height="780" fill="white"/>
</clipPath>
</defs>
</svg>
